<svg width="274" height="72" viewBox="0 0 274 72" fill="none" xmlns="http://www.w3.org/2000/svg">
<path d="M13.552 53.672C10.672 53.672 8.272 53.128 6.352 52.04C4.432 50.952 3.024 49.512 2.128 47.72C1.232 45.864 0.784 43.848 0.784 41.672C0.784 38.92 1.392 36.68 2.608 34.952C3.888 33.224 5.52 31.816 7.504 30.728C9.488 29.64 11.568 28.744 13.744 28.04C15.984 27.336 18.096 26.664 20.08 26.024C22.128 25.32 23.76 24.52 24.976 23.624C26.256 22.664 26.896 21.448 26.896 19.976V12.488C26.896 10.824 26.608 9.352 26.032 8.072C25.52 6.728 24.688 5.704 23.536 5C22.448 4.296 21.008 3.944 19.216 3.944C17.936 3.944 16.656 4.136 15.376 4.52C14.096 4.84 13.04 5.416 12.208 6.248C14 6.888 15.376 7.88 16.336 9.224C17.36 10.504 17.872 11.976 17.872 13.64C17.872 15.816 17.104 17.544 15.568 18.824C14.096 20.104 12.336 20.744 10.288 20.744C7.984 20.744 6.224 20.04 5.008 18.632C3.856 17.16 3.28 15.4 3.28 13.352C3.28 11.496 3.728 9.96 4.624 8.744C5.584 7.528 6.896 6.376 8.56 5.288C10.352 4.264 12.496 3.464 14.992 2.888C17.552 2.312 20.304 2.024 23.248 2.024C26.192 2.024 28.848 2.344 31.216 2.984C33.584 3.56 35.568 4.648 37.168 6.248C38.64 7.72 39.6 9.544 40.048 11.72C40.496 13.832 40.72 16.52 40.72 19.784V45.896C40.72 47.496 40.88 48.616 41.2 49.256C41.52 49.832 42.064 50.12 42.832 50.12C43.408 50.12 43.952 49.96 44.464 49.64C45.04 49.32 45.648 48.936 46.288 48.488L47.248 50.12C45.904 51.272 44.336 52.168 42.544 52.808C40.816 53.384 38.864 53.672 36.688 53.672C34.32 53.672 32.432 53.352 31.024 52.712C29.616 52.008 28.592 51.08 27.952 49.928C27.376 48.776 27.088 47.432 27.088 45.896C25.552 48.328 23.696 50.248 21.52 51.656C19.344 53 16.688 53.672 13.552 53.672ZM20.368 47.528C21.648 47.528 22.8 47.24 23.824 46.664C24.912 46.024 25.936 45 26.896 43.592V23.912C26.32 24.872 25.52 25.736 24.496 26.504C23.472 27.272 22.384 28.072 21.232 28.904C20.08 29.672 18.96 30.536 17.872 31.496C16.848 32.456 16.016 33.64 15.376 35.048C14.736 36.456 14.416 38.152 14.416 40.136C14.416 42.632 14.96 44.488 16.048 45.704C17.136 46.92 18.576 47.528 20.368 47.528ZM78.0235 2.024C80.7115 2.024 82.8875 2.376 84.5515 3.08C86.2795 3.72 87.6235 4.616 88.5835 5.768C89.6075 6.984 90.3435 8.552 90.7915 10.472C91.3035 12.392 91.5595 14.984 91.5595 18.248V44.072C91.5595 46.76 92.0075 48.584 92.9035 49.544C93.8635 50.504 95.4635 50.984 97.7035 50.984V53C96.4875 52.936 94.6635 52.872 92.2315 52.808C89.7995 52.68 87.3995 52.616 85.0315 52.616C82.5995 52.616 80.1995 52.68 77.8315 52.808C75.5275 52.872 73.7675 52.936 72.5515 53V50.984C74.4715 50.984 75.8155 50.504 76.5835 49.544C77.3515 48.584 77.7355 46.76 77.7355 44.072V14.216C77.7355 12.616 77.5755 11.24 77.2555 10.088C76.9355 8.872 76.3595 7.944 75.5275 7.304C74.6955 6.6 73.4475 6.248 71.7835 6.248C70.0555 6.248 68.4555 6.728 66.9835 7.688C65.5755 8.648 64.4235 9.992 63.5275 11.72C62.6955 13.384 62.2795 15.272 62.2795 17.384V44.072C62.2795 46.76 62.6635 48.584 63.4315 49.544C64.2635 50.504 65.6075 50.984 67.4635 50.984V53C66.3115 52.936 64.6155 52.872 62.3755 52.808C60.1995 52.68 57.9275 52.616 55.5595 52.616C53.1275 52.616 50.6315 52.68 48.0715 52.808C45.5115 52.872 43.5915 52.936 42.3115 53V50.984C44.5515 50.984 46.1195 50.504 47.0155 49.544C47.9755 48.584 48.4555 46.76 48.4555 44.072V13.832C48.4555 10.952 48.0075 8.84 47.1115 7.496C46.2795 6.088 44.6795 5.384 42.3115 5.384V3.368C44.3595 3.56 46.3435 3.656 48.2635 3.656C50.9515 3.656 53.4475 3.56 55.7515 3.368C58.1195 3.112 60.2955 2.76 62.2795 2.312V10.952C63.8795 7.688 66.0555 5.384 68.8075 4.04C71.5595 2.696 74.6315 2.024 78.0235 2.024ZM141.408 2.312V42.536C141.408 45.416 141.856 47.56 142.752 48.968C143.648 50.312 145.248 50.984 147.552 50.984V53C145.568 52.808 143.584 52.712 141.6 52.712C138.912 52.712 136.416 52.808 134.112 53C131.808 53.192 129.632 53.544 127.584 54.056V45.416C126.048 48.616 123.904 50.92 121.152 52.328C118.464 53.672 115.456 54.344 112.128 54.344C109.44 54.344 107.264 53.992 105.6 53.288C103.936 52.584 102.624 51.688 101.664 50.6C100.576 49.384 99.8082 47.784 99.3602 45.8C98.9123 43.816 98.6883 41.256 98.6883 38.12V13.832C98.6883 10.952 98.2402 8.84 97.3442 7.496C96.5122 6.088 94.9122 5.384 92.5442 5.384V3.368C94.5922 3.56 96.5762 3.656 98.4962 3.656C101.184 3.656 103.68 3.56 105.984 3.368C108.352 3.112 110.528 2.76 112.512 2.312V42.056C112.512 43.656 112.64 45.064 112.896 46.28C113.216 47.496 113.792 48.456 114.624 49.16C115.456 49.8 116.672 50.12 118.272 50.12C120 50.12 121.536 49.64 122.88 48.68C124.288 47.72 125.408 46.408 126.24 44.744C127.136 43.016 127.584 41.096 127.584 38.984V13.832C127.584 10.952 127.136 8.84 126.24 7.496C125.408 6.088 123.808 5.384 121.44 5.384V3.368C123.488 3.56 125.472 3.656 127.392 3.656C130.08 3.656 132.576 3.56 134.88 3.368C137.248 3.112 139.424 2.76 141.408 2.312ZM177.163 2.024C179.211 2.024 180.875 2.472 182.155 3.368C183.435 4.2 184.363 5.288 184.939 6.632C185.579 7.976 185.899 9.384 185.899 10.856C185.899 13.224 185.195 15.176 183.787 16.712C182.443 18.184 180.651 18.92 178.411 18.92C176.171 18.92 174.411 18.376 173.131 17.288C171.915 16.136 171.307 14.632 171.307 12.776C171.307 10.984 171.691 9.512 172.459 8.36C173.291 7.144 174.315 6.12 175.531 5.288C174.635 5.032 173.739 5.064 172.843 5.384C171.627 5.576 170.475 6.088 169.387 6.92C168.299 7.688 167.371 8.68 166.603 9.896C165.835 11.048 165.227 12.328 164.779 13.736C164.331 15.08 164.107 16.392 164.107 17.672V43.112C164.107 46.184 164.843 48.264 166.315 49.352C167.851 50.44 170.123 50.984 173.131 50.984V53C171.659 52.936 169.515 52.872 166.699 52.808C163.883 52.68 160.939 52.616 157.867 52.616C155.307 52.616 152.715 52.68 150.091 52.808C147.467 52.872 145.483 52.936 144.139 53V50.984C146.379 50.984 147.947 50.504 148.843 49.544C149.803 48.584 150.283 46.76 150.283 44.072V13.832C150.283 10.952 149.835 8.84 148.939 7.496C148.107 6.088 146.507 5.384 144.139 5.384V3.368C146.187 3.56 148.171 3.656 150.091 3.656C152.779 3.656 155.275 3.56 157.579 3.368C159.947 3.112 162.123 2.76 164.107 2.312V11.24C164.875 9.512 165.899 7.944 167.179 6.536C168.459 5.128 169.931 4.04 171.595 3.272C173.259 2.44 175.115 2.024 177.163 2.024ZM194.519 53.672C191.639 53.672 189.239 53.128 187.319 52.04C185.399 50.952 183.991 49.512 183.095 47.72C182.199 45.864 181.751 43.848 181.751 41.672C181.751 38.92 182.359 36.68 183.575 34.952C184.855 33.224 186.487 31.816 188.471 30.728C190.455 29.64 192.535 28.744 194.711 28.04C196.951 27.336 199.063 26.664 201.047 26.024C203.096 25.32 204.728 24.52 205.944 23.624C207.224 22.664 207.864 21.448 207.864 19.976V12.488C207.864 10.824 207.576 9.352 207 8.072C206.488 6.728 205.655 5.704 204.503 5C203.415 4.296 201.976 3.944 200.184 3.944C198.903 3.944 197.623 4.136 196.343 4.52C195.063 4.84 194.007 5.416 193.175 6.248C194.967 6.888 196.344 7.88 197.304 9.224C198.328 10.504 198.84 11.976 198.84 13.64C198.84 15.816 198.072 17.544 196.536 18.824C195.063 20.104 193.303 20.744 191.255 20.744C188.951 20.744 187.191 20.04 185.975 18.632C184.823 17.16 184.247 15.4 184.247 13.352C184.247 11.496 184.695 9.96 185.591 8.744C186.551 7.528 187.863 6.376 189.527 5.288C191.319 4.264 193.463 3.464 195.959 2.888C198.519 2.312 201.271 2.024 204.215 2.024C207.16 2.024 209.816 2.344 212.184 2.984C214.552 3.56 216.536 4.648 218.136 6.248C219.608 7.72 220.568 9.544 221.016 11.72C221.464 13.832 221.688 16.52 221.688 19.784V45.896C221.688 47.496 221.848 48.616 222.168 49.256C222.488 49.832 223.031 50.12 223.799 50.12C224.375 50.12 224.92 49.96 225.432 49.64C226.008 49.32 226.616 48.936 227.256 48.488L228.215 50.12C226.872 51.272 225.304 52.168 223.512 52.808C221.783 53.384 219.832 53.672 217.656 53.672C215.288 53.672 213.4 53.352 211.991 52.712C210.584 52.008 209.56 51.08 208.919 49.928C208.343 48.776 208.055 47.432 208.055 45.896C206.519 48.328 204.663 50.248 202.487 51.656C200.311 53 197.655 53.672 194.519 53.672ZM201.335 47.528C202.616 47.528 203.768 47.24 204.792 46.664C205.88 46.024 206.904 45 207.864 43.592V23.912C207.288 24.872 206.488 25.736 205.464 26.504C204.44 27.272 203.352 28.072 202.2 28.904C201.047 29.672 199.927 30.536 198.84 31.496C197.816 32.456 196.984 33.64 196.343 35.048C195.703 36.456 195.383 38.152 195.383 40.136C195.383 42.632 195.927 44.488 197.015 45.704C198.103 46.92 199.543 47.528 201.335 47.528ZM241.903 71.048C237.935 71.048 234.383 70.696 231.247 69.992C228.175 69.352 225.743 68.328 223.951 66.92C222.223 65.576 221.359 63.912 221.359 61.928C221.359 59.944 222.255 58.152 224.047 56.552C225.839 55.016 228.495 53.8 232.015 52.904L232.879 54.44C231.663 55.4 230.767 56.424 230.191 57.512C229.679 58.664 229.423 59.848 229.423 61.064C229.423 63.752 230.639 65.8 233.071 67.208C235.567 68.68 238.927 69.416 243.151 69.416C246.031 69.416 248.591 69.032 250.831 68.264C253.135 67.496 254.927 66.344 256.207 64.808C257.551 63.272 258.223 61.384 258.223 59.144C258.223 57.224 257.519 55.592 256.111 54.248C254.703 52.968 251.887 52.328 247.663 52.328H241.711C239.087 52.328 236.783 52.04 234.799 51.464C232.879 50.888 231.375 49.992 230.287 48.776C229.199 47.496 228.655 45.896 228.655 43.976C228.655 41.288 229.711 38.92 231.823 36.872C233.935 34.824 237.071 32.904 241.231 31.112L242.191 31.88C240.975 32.648 239.823 33.48 238.735 34.376C237.711 35.208 237.199 36.296 237.199 37.64C237.199 39.688 238.479 40.712 241.039 40.712H251.503C255.023 40.712 258.159 41.128 260.911 41.96C263.727 42.792 265.935 44.168 267.535 46.088C269.199 47.944 270.031 50.376 270.031 53.384C270.031 56.52 269.007 59.432 266.959 62.12C264.975 64.808 261.903 66.952 257.743 68.552C253.583 70.216 248.303 71.048 241.903 71.048ZM242.863 32.552C239.215 32.552 235.951 32.008 233.071 30.92C230.191 29.832 227.919 28.168 226.255 25.928C224.591 23.688 223.759 20.808 223.759 17.288C223.759 13.768 224.591 10.888 226.255 8.648C227.919 6.344 230.191 4.68 233.071 3.656C235.951 2.568 239.215 2.024 242.863 2.024C246.511 2.024 249.775 2.568 252.655 3.656C255.535 4.68 257.807 6.344 259.471 8.648C261.135 10.888 261.967 13.768 261.967 17.288C261.967 20.808 261.135 23.688 259.471 25.928C257.807 28.168 255.535 29.832 252.655 30.92C249.775 32.008 246.511 32.552 242.863 32.552ZM242.863 30.824C244.591 30.824 245.935 29.864 246.895 27.944C247.855 25.96 248.335 22.408 248.335 17.288C248.335 12.168 247.855 8.648 246.895 6.728C245.935 4.744 244.591 3.752 242.863 3.752C241.199 3.752 239.855 4.744 238.831 6.728C237.871 8.648 237.391 12.168 237.391 17.288C237.391 22.408 237.871 25.96 238.831 27.944C239.855 29.864 241.199 30.824 242.863 30.824ZM257.839 10.28L255.919 9.608C256.879 7.112 258.415 5.032 260.527 3.368C262.703 1.704 265.039 0.871996 267.535 0.871996C269.583 0.871996 271.119 1.448 272.143 2.6C273.231 3.688 273.775 5.128 273.775 6.92C273.775 8.84 273.263 10.28 272.239 11.24C271.215 12.136 270.063 12.584 268.783 12.584C267.695 12.584 266.671 12.2 265.711 11.432C264.815 10.664 264.303 9.512 264.175 7.976C264.047 6.376 264.591 4.328 265.807 1.832L266.479 2.408C264.047 3.304 262.223 4.36 261.007 5.576C259.791 6.728 258.735 8.296 257.839 10.28Z" fill="white"/>
</svg>
